# xmcd
#
# Track frame offsets:
#	150
#	11589
#	23275
#	35404
#	46216
#	61116
#	73843
#	83902
#	94350
#	106845
#	118704
#	130080
#	141216
#	152913
#	164550
#	175582
#	186818
#	198292
#
# Disc length: 2756 seconds
#
# Revision: 0
# Processed by: cddbd v1.5.2PL0 Copyright (c) Steve Scherf et al.
# Submitted via: EasyCDDAExtractor 16.0.6.1
#
DISCID=e90ac212
DTITLE=Bobby Blue Bland - The Duke Years 1952-1962 CD2
DYEAR=2014
DGENRE=Blues
TTITLE0=Ain't That Loving You
TTITLE1=Yield Not to Temptation
TTITLE2=Cry, Cry, Cry
TTITLE3=I'll Take Care of You
TTITLE4=Lovin' Blues
TTITLE5=Time Out
TTITLE6=Blue Moon
TTITLE7=I've Been Wrong So Long
TTITLE8=I Learned My Lesson
TTITLE9=I Don’t Believe
TTITLE10=I Smell Trouble
TTITLE11=You Got Me (Where You Want Me)
TTITLE12=I Lost Sight on the World
TTITLE13=Wishing Well
TTITLE14=Is It Real
TTITLE15=Your Friends
TTITLE16=I've Just Got to Forget You
TTITLE17=That's Why
EXTD=
EXTT0=
EXTT1=
EXTT2=
EXTT3=
EXTT4=
EXTT5=
EXTT6=
EXTT7=
EXTT8=
EXTT9=
EXTT10=
EXTT11=
EXTT12=
EXTT13=
EXTT14=
EXTT15=
EXTT16=
EXTT17=
PLAYORDER=
